# xmcd
#
# Track frame offsets: 
#        150
#        5166
#        26147
#        48660
#        72492
#        96460
#        113454
#        135358
#        153477
#        176207
#        195711
#        217818
#        236935
#        264469
#
# Disc length: 3587 seconds
#
# Revision: 0
# Processed by: cddbd v1.5.2PL0 Copyright (c) Steve Scherf et al.
# Submitted via: ExactAudioCopy v1.0b3
#
DISCID=cd0e010e
DTITLE=Various Artist - Hoi Tuong
DYEAR=1985
DGENRE=
TTITLE0=Minh Van - Loi gioi thieu
TTITLE1=Thanh Mai - Ngay tam biet
TTITLE2=Phuong Dung - Nguoi ngoai pho
TTITLE3=Thanh Tuyen - Hay quen anh
TTITLE4=Giao Linh - Thuong ve quan tro
TTITLE5=Tra Mi - Mua ly biet
TTITLE6=Kim Loan - Ngoai o buon
TTITLE7=Nhu Mai, Bui Thien - Viet Nam oi hoa binh oi
TTITLE8=Hai Ly - Khong ten cuoi cung
TTITLE9=Duy Quang - Loi ke dang trinh
TTITLE10=Luu Hong - Trang phuong Nam
TTITLE11=Ngoc Lan - Em cho anh tro lai
TTITLE12=Kim Tuyen - Giac ngu co don
TTITLE13=Minh Van - Loi ket
EXTD=
EXTT0=
EXTT1=
EXTT2=
EXTT3=
EXTT4=
EXTT5=
EXTT6=
EXTT7=
EXTT8=
EXTT9=
EXTT10=
EXTT11=
EXTT12=
EXTT13=
PLAYORDER=
